# xmcd
#
# Track frame offsets: 
#        150
#        16815
#        41532
#        57202
#        72365
#        82895
#        95475
#        107475
#        131055
#        144950
#        153870
#        177645
#
# Disc length: 2526 seconds
#
# Revision: 1
# Processed by: cddbd v1.5.2PL0 Copyright (c) Steve Scherf et al.
# Submitted via: ExactAudioCopy v0.99pb4
#
DISCID=9509dc0c
DTITLE=Yansimalar - Yansimalar
DYEAR=1991
DGENRE=Turk Fusion
TTITLE0=Agit
TTITLE1=Yansimalar
TTITLE2=Bir Eski Istanbul
TTITLE3=Sonbahar
TTITLE4=Rüzgarda Basaklar
TTITLE5=Gurbet
TTITLE6=Günisigi
TTITLE7=Serzenis
TTITLE8=Dostluk
TTITLE9=Hüzün Çiçekleri
TTITLE10=Göç
TTITLE11=Kar çiçekleri
EXTD=
EXTT0=
EXTT1=
EXTT2=
EXTT3=
EXTT4=
EXTT5=
EXTT6=
EXTT7=
EXTT8=
EXTT9=
EXTT10=
EXTT11=
PLAYORDER=
